# xmcd
#
# Track frame offsets: 
#        150
#        17072
#        27595
#
# Disc length: 504 seconds
#
# Revision: 0
# Processed by: cddbd v1.5.2PL0 Copyright (c) Steve Scherf et al.
# Submitted via: ExactAudioCopy v0.99pb3
#
DISCID=1d01f603
DTITLE=Seafood - This Is Not An Exit
DYEAR=1999
DGENRE=Fierce Panda
TTITLE0=This Is Not An Exit
TTITLE1=Peephole Crafts
TTITLE2=Demand Mountains
EXTD=
EXTT0=
EXTT1=
EXTT2=
PLAYORDER=
